<svg width="25" height="25" fill="none" xmlns="http://www.w3.org/2000/svg"><path id="svg-cart" class="svg-fill" d="M17.947 13.208a1.89 1.89 0 001.672-.982l4.291-7.78a.693.693 0 00.09-.34.713.713 0 00-.365-.623.7.7 0 00-.344-.087L21.5 3.394H5.222L4.126 1H1v1.425h2.243l4.528 9.358-1.74 3.376a1.924 1.924 0 00.76 2.615c.263.143.571.226.912.226h13.892v-1.424H6.885l1.884-3.368c3.057.01 6.12 0 9.178 0zm4.134-8.387l-3.857 6.963H9.22L5.902 4.82h16.179zM7.867 19.453c-.525 0-1 .213-1.342.558a1.913 1.913 0 00-.557 1.352c0 .528.213 1.006.557 1.353.343.344.817.558 1.342.558.524 0 1.002-.215 1.349-.562a1.905 1.905 0 000-2.698 1.905 1.905 0 00-1.35-.561zm11.98 0c-.524 0-.998.213-1.34.558a1.913 1.913 0 00-.558 1.352c0 .528.213 1.006.557 1.353.343.344.817.558 1.342.558.525 0 1.002-.215 1.349-.562a1.905 1.905 0 000-2.698 1.905 1.905 0 00-1.35-.561z" fill="#000" stroke="#000"/></svg>